PathFileType	4	(X/Y/Z)	C:\Users\WrightLab\Desktop\Jo\P4V127.trc
DataRate	CameraRate	NumFrames	NumMarkers	Units	OrigDataRate	OrigDataStartFrame	OrigNumFrames
100.00	100.00	       12	19	mm	100.00	482	       642
Frame#	Time	Headset_Front			Headset_Back			Headset_Left			Headset_Right			Left_Shoulder			Right_Shoulder			Sternum			C7			Left Elbow			Right Elbow			Left Wrist			Right Wrist			Left ASIS			Right ASIS			S2			Left Knee			Right Knee			Left Ankle			Right Ankle			
		X1	Y1	Z1	X2	Y2	Z2	X3	Y3	Z3	X4	Y4	Z4	X5	Y5	Z5	X6	Y6	Z6	X7	Y7	Z7	X8	Y8	Z8	X9	Y9	Z9	X10	Y10	Z10	X11	Y11	Z11	X12	Y12	Z12	X13	Y13	Z13	X14	Y14	Z14	X15	Y15	Z15	X16	Y16	Z16	X17	Y17	Z17	X18	Y18	Z18	X19	Y19	Z19	

482	4.810	105.48326	1687.70435	1680.21277										321.67114	1540.94128	1517.48218	26.48941	1536.29956	1433.83862	158.25134	1479.88391	1586.76404				471.07117	1194.34448	1533.54321	-110.81683	1184.45276	1447.71289	445.54385	913.09570	1666.85754	-127.44657	956.43378	1651.47034	305.70700	1051.07910	1624.19873	-20.24761	1042.09741	1547.89355				291.80997	589.67096	1743.61255	52.53139	564.73145	1454.22412	244.93660	88.94776	1817.36621	196.32646	103.81558	1260.63013	
483	4.820	105.40556	1686.76416	1689.15466										322.48846	1539.74756	1525.69775	27.18071	1535.82263	1444.12952	158.51904	1479.07056	1595.68835				470.98447	1192.88245	1543.85229	-109.95641	1183.15454	1456.46448	445.26373	912.72644	1678.77942	-128.85191	954.31396	1657.31494	304.76151	1051.03967	1634.60718	-20.72174	1041.87109	1558.22571				289.18549	588.51672	1755.21973	50.60473	564.72064	1462.15515	241.85240	89.70618	1818.95386	196.16096	106.18615	1262.43262	
484	4.830	105.57806	1686.48242	1697.94934										323.28537	1538.57983	1534.59680	27.98975	1534.76563	1452.86694	159.18086	1478.87415	1605.38379				470.74124	1191.66248	1554.74084	-110.16193	1182.88770	1464.63684	445.26852	911.45398	1690.28955	-130.64836	952.80573	1664.79834	304.11182	1050.67163	1646.55237	-21.52616	1041.23621	1570.20349				287.10510	588.44672	1767.88794	48.49730	564.85028	1470.56921	240.35965	90.71572	1824.08752	194.86121	108.73601	1262.93909	
485	4.840	105.06983	1686.18005	1707.40771										323.86942	1537.73132	1543.41943	28.78796	1534.47290	1462.27502	159.69893	1478.70056	1613.90283				470.40845	1190.41772	1564.57715	-110.33302	1182.95959	1473.61279	444.91037	911.18353	1702.57788	-131.67696	950.52374	1670.09033	302.66891	1051.33960	1659.41748	-22.31778	1041.11462	1580.14001				284.69467	588.51459	1780.65698	46.17428	564.91968	1479.34497	239.99202	91.22380	1826.86987	194.37122	112.64571	1264.89478	
486	4.850	105.77349	1685.62756	1713.83704										324.76215	1536.69702	1551.63806	29.55046	1534.21741	1471.17932	160.46178	1478.91663	1623.12585				470.91974	1189.05029	1576.20068	-110.32495	1182.68701	1482.23022	444.73312	909.91382	1714.41760	-133.65610	948.51141	1675.78833	301.52280	1051.63196	1671.63147	-23.67189	1041.19287	1591.17859				282.10690	587.34760	1792.12878	43.58000	565.29840	1488.83191	239.59468	92.60574	1829.11426	192.91602	116.31284	1266.70947	
487	4.860	104.85605	1686.22656	1722.95288										325.66208	1536.43188	1561.03711	30.68217	1534.61072	1479.91943	161.23814	1480.26587	1632.88501				470.80850	1188.05725	1586.02124	-110.38339	1183.48730	1490.95117	443.57654	910.81104	1726.86926	-134.54453	945.67096	1680.63843	299.79016	1052.66809	1684.10938	-25.03603	1042.37573	1604.01050				279.23608	587.05756	1804.02576	40.81538	565.40009	1499.34851	239.39366	93.86646	1833.23926	192.32761	119.83313	1269.27441	
488	4.870	104.88869	1686.00464	1730.12000										326.55389	1536.39026	1569.75391	31.01628	1534.93274	1488.54578	161.72160	1481.61023	1641.25183				470.52927	1187.70764	1596.14319	-110.41148	1184.28882	1498.84924	442.57938	911.27069	1740.29004	-136.56993	945.40533	1687.90796	298.38681	1053.47925	1696.34595	-26.43341	1042.78308	1614.02173				276.56293	585.77106	1812.50464	37.56562	565.86652	1509.78931	241.09642	93.32569	1833.53320	191.33826	125.35750	1272.08472	
489	4.880	104.58047	1686.81689	1738.89807										327.55536	1536.63989	1579.42322	32.76726	1535.43909	1495.64539	161.54440	1482.54321	1649.82690				470.84796	1187.38745	1607.40283	-110.21352	1185.49854	1507.61877	442.51355	911.78101	1751.80188	-137.78317	943.34399	1692.84607	296.14749	1054.65015	1709.53540	-25.94670	1042.34204	1621.92883				274.80313	586.77319	1822.25415	33.64292	566.20337	1521.88623	241.42973	93.93314	1836.51379	189.54886	130.90511	1275.84094	
490	4.890	104.24887	1687.64026	1747.99634										328.51453	1536.93774	1588.98865	33.48085	1536.63794	1504.81311	161.99323	1484.09265	1658.81995				470.71970	1187.49463	1618.68604	-111.15734	1187.68323	1516.67859	441.03525	913.00458	1765.67029	-139.39166	942.55133	1697.01208	295.05588	1055.52295	1720.78296	-27.40711	1044.66748	1634.79602				274.27759	588.27368	1832.51025	29.24586	566.26563	1536.00330	241.75128	94.84116	1839.15918	187.74899	136.72960	1279.77893	
491	4.900	103.96004	1688.84790	1757.00525										328.81998	1537.45044	1597.72693	35.15587	1537.62341	1512.15515	162.73882	1485.46594	1667.15247				470.19107	1187.78015	1629.29688	-109.62114	1188.59375	1524.90930	440.93814	913.50348	1776.61475	-141.69141	942.51703	1702.27515	293.25903	1057.65381	1732.63232	-28.38560	1044.93359	1643.04590				274.31378	588.51990	1842.07300	24.57051	566.50525	1550.20691	241.37477	95.00152	1839.13696	185.68524	143.28404	1285.57739	
492	4.910	103.26032	1690.20520	1765.29614										329.58096	1538.10059	1608.09045	36.57040	1538.93933	1519.85242	162.40865	1487.46533	1677.37549				470.30521	1188.72205	1640.57532	-109.25221	1190.57617	1532.70728	439.91907	915.25287	1788.54663	-142.69040	941.71063	1706.40796	292.24768	1059.80725	1743.30408	-29.37857	1045.42151	1652.47339				274.80789	588.37323	1851.13306	19.86837	566.16406	1566.18384	240.93855	94.43501	1839.96851	183.65765	151.14323	1290.85522	
493	4.920	102.47943	1691.73694	1772.82788										330.56198	1539.47083	1617.75256	37.63096	1540.39905	1528.15308	162.53677	1489.32288	1686.78516				469.47812	1189.23621	1651.69080	-108.94366	1192.65002	1540.34668	438.53842	916.76306	1802.05981	-144.73810	941.43738	1711.49365	290.87918	1062.43494	1754.06750	-30.09630	1045.81055	1660.99695				275.47971	590.50519	1861.17090	14.50715	565.02411	1583.99695	240.52292	94.63382	1839.91943	180.34175	159.02708	1297.66382	
